<?xml version="1.0" standalone="no"?>
<!DOCTYPE svg PUBLIC "-//W3C//DTD SVG 20010904//EN"
 "http://www.w3.org/TR/2001/REC-SVG-20010904/DTD/svg10.dtd">
<svg version="1.0" xmlns="http://www.w3.org/2000/svg"
 width="700.000000pt" height="700.000000pt" viewBox="0 0 700.000000 700.000000"
 preserveAspectRatio="xMidYMid meet">
<metadata>
Created by potrace 1.11, written by Peter Selinger 2001-2013
</metadata>
<g transform="translate(0.000000,700.000000) scale(0.100000,-0.100000)"
fill="#000000" stroke="none">
<path d="M0 3500 l0 -3500 2401 0 c2273 0 2401 1 2395 18 -5 13 -3 13 9 -3 14
-17 17 -18 25 -5 7 10 10 11 10 3 0 -10 223 -13 1080 -13 l1080 0 0 3500 0
3500 -3500 0 -3500 0 0 -3500z m3835 2521 c-8 -13 38 -10 47 4 5 7 8 6 8 -1 0
-8 17 -10 52 -7 35 3 54 0 59 -9 7 -10 9 -9 9 5 0 9 5 17 11 17 5 0 8 -4 4
-10 -9 -14 39 -41 60 -34 12 5 16 4 12 -3 -10 -17 17 -33 45 -28 15 3 30 0 34
-6 4 -8 3 -9 -4 -5 -7 4 -12 3 -12 -3 0 -14 40 -40 70 -44 13 -2 26 -9 28 -15
3 -9 9 -9 23 -2 15 8 19 7 19 -5 0 -8 6 -15 13 -15 15 -1 52 -50 37 -50 -5 0
-10 4 -10 8 0 9 -98 37 -105 30 -3 -2 11 -10 30 -17 20 -7 33 -16 30 -21 -3
-5 3 -14 14 -20 18 -9 20 -8 14 7 -3 10 17 -6 44 -34 28 -29 55 -53 62 -53 6
0 11 -4 11 -9 0 -5 12 -16 26 -26 15 -9 23 -12 20 -6 -8 13 -4 14 18 5 9 -3
13 -11 10 -16 -4 -6 0 -15 7 -20 10 -6 6 -7 -11 -2 l-25 7 20 -22 c14 -16 16
-24 7 -30 -8 -5 -6 -12 8 -24 11 -9 24 -17 30 -17 5 0 11 -4 14 -9 4 -5 -3 -7
-14 -4 -11 3 -20 0 -20 -6 0 -6 5 -11 10 -11 6 0 10 -4 10 -10 0 -5 -7 -7 -16
-3 -14 5 -15 3 -5 -15 7 -12 19 -22 28 -22 9 0 14 -3 10 -6 -3 -3 5 -18 18
-32 13 -14 22 -29 19 -34 -3 -4 7 -23 21 -42 16 -21 22 -37 16 -41 -7 -4 -6
-16 4 -35 9 -17 15 -33 15 -36 -1 -4 13 -14 30 -22 17 -8 27 -18 22 -21 -18
-12 8 -51 44 -66 27 -11 35 -19 30 -31 -4 -9 -2 -22 2 -28 12 -15 22 -57 13
-51 -4 2 -8 -42 -8 -98 0 -56 -3 -160 -7 -232 -3 -71 -8 -175 -10 -230 -2 -55
-5 -100 -6 -100 -1 0 -4 -13 -6 -30 l-3 -30 16 29 c24 46 38 17 38 -79 -1 -77
1 -84 20 -88 41 -7 113 44 107 75 -1 4 -4 29 -8 55 -3 26 -10 51 -17 55 -8 5
-8 13 1 32 10 23 9 28 -8 38 -11 7 -20 18 -20 25 0 7 -9 17 -20 23 -11 6 -20
16 -19 23 0 9 2 9 6 0 2 -7 9 -13 14 -13 6 0 5 9 -2 21 -10 20 -9 21 12 14 13
-4 38 -8 54 -9 23 -1 31 -6 33 -23 3 -22 22 -33 22 -14 0 5 3 17 7 27 5 12 3
15 -6 9 -8 -4 -6 4 4 19 10 14 22 26 28 26 7 0 7 -4 -1 -12 -7 -7 -8 -16 -3
-22 5 -6 5 -81 0 -167 -9 -176 -24 -229 -91 -329 -83 -125 -183 -197 -258
-187 l-39 5 -20 -62 c-11 -33 -34 -108 -51 -165 -29 -97 -64 -170 -116 -248
-21 -32 -25 -67 -40 -348 -8 -167 -23 -266 -45 -296 -10 -15 -19 -32 -19 -38
0 -6 -5 -11 -11 -11 -5 0 -7 -5 -4 -10 3 -5 1 -10 -4 -10 -6 0 -11 -7 -11 -15
0 -8 -6 -15 -14 -15 -8 0 -17 -7 -20 -16 -3 -8 -9 -13 -13 -11 -5 3 -14 -1
-21 -9 -7 -8 -9 -14 -5 -14 4 0 1 -4 -7 -10 -9 -6 -17 -5 -22 3 -6 9 -8 9 -8
0 0 -7 -9 -13 -21 -13 -11 0 -18 -4 -14 -9 3 -5 -8 -9 -23 -9 -16 1 -34 -2
-40 -6 -6 -3 -13 0 -15 6 -4 8 -8 4 -12 -9 -6 -17 -15 -23 -37 -23 -16 0 -27
4 -23 9 3 5 1 12 -5 16 -6 4 -8 11 -5 16 3 5 -1 6 -10 3 -11 -4 -12 -10 -6
-18 7 -8 4 -12 -9 -13 -11 -1 -23 9 -30 28 -12 28 -38 43 -27 16 3 -9 -6 -13
-29 -14 -19 -1 -41 -7 -49 -13 -12 -10 -15 -10 -15 1 0 11 -2 11 -9 -1 -6 -8
-7 -18 -4 -23 3 -5 -4 -4 -15 2 -26 14 -35 14 -27 1 3 -6 -1 -10 -9 -10 -9 0
-16 -5 -16 -11 0 -6 -9 -8 -20 -4 -12 4 -20 2 -20 -5 0 -7 -8 -4 -17 7 -10 10
-14 13 -9 6 5 -8 7 -15 5 -16 -2 -1 -13 -9 -23 -17 -15 -11 -18 -12 -12 -1 7
10 3 12 -15 6 -17 -4 -20 -4 -10 3 12 9 12 13 -2 27 -10 9 -17 19 -17 21 0 7
27 33 31 31 3 -1 1 2 -3 7 -4 5 -14 1 -23 -8 -22 -21 -28 -20 -16 3 8 15 7 18
-6 17 -9 0 -18 5 -21 13 -3 10 0 12 11 8 9 -3 19 -2 22 3 4 6 1 10 -6 10 -7 0
-2 8 9 19 23 19 30 51 11 51 -5 0 -7 -6 -3 -12 4 -7 3 -10 -1 -5 -5 4 -10 18
-11 30 -2 12 0 16 2 9 3 -6 10 -9 15 -6 6 3 5 11 -2 20 -9 11 -7 14 12 14 19
0 21 2 9 10 -13 8 -12 10 3 10 9 0 17 5 17 11 0 6 7 18 16 26 13 14 17 14 25
2 7 -11 9 -11 9 3 0 10 10 20 25 24 14 3 23 10 20 15 -6 8 -66 -10 -107 -32
-13 -7 -32 -14 -43 -15 -61 -7 -92 -7 -103 0 -7 4 -12 2 -13 -6 0 -7 -5 1 -10
17 -5 17 -7 41 -4 55 4 19 3 21 -5 10 -9 -15 -11 -14 -14 13 -1 6 -8 11 -15 9
-7 -1 -10 2 -6 8 3 6 10 8 15 5 5 -3 9 7 8 22 0 15 2 38 5 51 5 17 2 22 -14
22 -10 0 -19 -5 -19 -12 0 -6 -3 -8 -6 -5 -4 4 -2 13 4 20 7 8 9 17 6 20 -4 3
-1 21 5 38 14 41 -3 66 -18 26 -11 -29 -31 -37 -31 -12 0 9 -6 12 -16 8 -12
-4 -13 -8 -3 -14 9 -5 10 -14 3 -28 -7 -16 -12 -18 -24 -10 -12 8 -12 12 -2
16 9 3 10 9 2 18 -8 9 -6 14 5 19 9 3 14 10 10 15 -3 5 4 12 15 16 26 8 26 25
0 25 -13 0 -18 5 -14 15 7 17 44 21 44 5 0 -6 12 -3 26 7 27 17 27 17 16 -4
-7 -12 -17 -24 -24 -27 -7 -3 1 -3 17 0 21 4 26 3 16 -4 -11 -8 -10 -14 4 -35
18 -29 41 -41 50 -27 4 6 1 10 -4 10 -6 0 -11 5 -11 11 0 5 5 7 10 4 17 -10
23 24 9 43 -13 15 -12 16 4 3 14 -11 21 -11 29 -3 9 9 9 12 0 12 -7 0 -12 7
-12 15 0 8 -4 15 -9 15 -6 0 -9 12 -7 28 1 15 -2 33 -8 41 -9 12 -8 13 4 6 8
-4 6 1 -5 12 -11 12 -22 21 -25 21 -25 0 -43 5 -32 9 6 2 10 9 7 13 -3 5 -12
7 -19 4 -7 -3 -19 2 -26 11 -7 8 -9 16 -4 16 5 1 16 2 24 3 8 0 16 11 18 22 2
16 8 20 23 17 10 -3 19 -1 19 4 0 15 41 30 80 29 19 -1 41 5 49 12 7 7 20 11
27 8 7 -3 18 3 23 12 6 9 11 13 11 9 0 -4 9 -3 20 3 15 8 27 7 51 -5 17 -9 37
-14 45 -11 8 3 14 1 14 -5 0 -6 4 -8 9 -5 4 3 6 18 4 33 -2 16 -5 33 -5 40 -1
7 -5 10 -9 7 -11 -6 -30 31 -21 42 4 5 3 6 -2 1 -5 -4 -18 0 -27 9 -16 15 -21
15 -41 2 -23 -14 -58 -14 -58 1 0 4 -30 31 -66 60 -68 55 -91 62 -201 64 -24
0 -43 4 -43 9 0 4 18 17 40 28 22 11 41 24 41 28 8 46 5 56 -21 54 -3 0 -17
24 -31 54 -22 46 -24 59 -14 78 20 38 24 76 8 76 -8 0 -12 4 -9 9 9 14 -5 41
-21 41 -8 0 -11 5 -8 10 3 6 2 10 -3 10 -6 0 -8 10 -4 22 9 35 28 68 35 61 4
-3 7 1 7 10 0 9 -4 18 -10 22 -5 3 -7 12 -4 20 4 8 0 17 -8 20 -16 6 -22 79
-8 105 6 11 5 21 -2 28 -9 9 -9 12 0 12 7 0 11 3 11 8 -4 25 2 62 10 57 5 -3
12 -1 16 5 3 5 1 10 -5 10 -6 0 -8 12 -5 31 3 18 2 28 -4 25 -6 -4 -6 5 0 26
5 18 14 35 19 36 7 3 6 10 -2 20 -11 13 -11 14 1 7 10 -6 12 -4 6 5 -4 7 -10
36 -12 64 -2 28 -8 65 -12 83 -6 22 -6 33 2 37 8 3 9 7 2 13 -14 11 -17 81 -5
101 6 11 9 12 10 4 0 -7 5 -10 12 -6 8 5 6 11 -6 20 -10 7 -15 17 -12 23 3 5
-2 11 -11 13 -17 3 -17 4 0 11 13 5 20 0 27 -18 5 -14 12 -25 16 -25 3 0 4 7
1 15 -4 8 -2 17 3 20 6 4 10 11 10 17 0 6 -7 5 -17 -3 -14 -12 -16 -12 -11 1
2 8 15 17 28 18 20 3 22 0 18 -22 -3 -14 -1 -23 3 -20 5 3 9 12 9 20 0 8 5 12
11 9 6 -4 13 2 16 14 3 11 9 18 14 16 4 -3 6 -13 3 -23 -5 -16 -5 -16 8 -1 12
15 16 15 33 3 10 -8 16 -17 12 -20 -10 -10 41 -34 58 -27 8 3 15 1 15 -5 0
-14 57 -21 70 -8 7 7 10 4 10 -10 0 -10 -14 -30 -30 -44 -57 -46 -76 -95 -75
-185 2 -79 2 -80 28 -83 17 -2 27 -9 27 -20 0 -9 9 -28 20 -42 11 -14 20 -33
20 -42 0 -10 4 -18 8 -18 4 0 24 -15 44 -34 20 -19 39 -32 42 -29 3 3 8 -2 12
-11 3 -9 14 -16 24 -16 10 0 21 -7 24 -16 4 -10 12 -14 23 -10 10 4 14 4 10 0
-12 -12 14 -34 39 -34 13 0 24 -6 24 -13 0 -7 7 -22 16 -33 15 -19 15 -18 5 2
-8 16 -7 21 4 21 8 0 12 -4 9 -8 -2 -4 5 -10 15 -14 12 -4 18 -12 14 -21 -4
-10 0 -12 11 -8 11 4 15 2 13 -7 -2 -8 -2 -11 0 -6 9 15 22 6 17 -10 -5 -15
-4 -16 5 -3 6 9 7 18 1 24 -6 6 -10 17 -9 25 0 11 2 12 6 4 8 -21 19 -14 19
12 0 23 -1 24 -23 10 -25 -17 -37 -19 -28 -6 3 5 -4 13 -15 16 -17 5 -19 9 -9
21 10 12 10 15 -2 12 -8 -2 -13 3 -11 10 1 6 -3 11 -9 10 -20 -5 -34 29 -19
47 10 13 15 13 21 3 7 -10 9 -10 9 1 0 7 6 11 14 8 8 -3 17 1 20 9 3 9 10 13
15 9 5 -3 12 -1 16 5 4 6 11 8 16 4 6 -3 7 4 3 20 -4 16 -2 26 5 26 6 0 11 7
11 15 0 14 3 14 24 0 21 -14 24 -14 29 0 8 18 33 20 40 3 3 -8 6 -6 6 5 1 9
-3 17 -8 17 -5 0 -7 8 -5 18 4 11 17 18 42 20 20 1 41 7 46 12 6 6 14 6 23 -1
10 -9 13 -8 13 4 0 8 14 17 33 22 17 4 26 9 20 12 -10 4 -10 9 1 25 13 18 11
23 -17 50 -30 29 -31 30 -4 14 25 -15 27 -15 27 0 0 40 -113 113 -206 134 -47
11 -104 36 -104 46 0 4 9 4 20 1 10 -3 19 -2 18 2 0 3 0 13 1 21 1 12 3 13 10
1 7 -11 10 -11 17 0 4 7 3 14 -4 17 -7 2 -12 10 -12 18 0 8 -6 14 -14 14 -8 0
-16 7 -20 15 -3 8 -1 15 4 15 6 0 10 -4 10 -10 0 -5 7 -10 15 -10 8 0 15 5 15
11 0 5 -6 7 -12 4 -7 -4 -4 1 6 9 11 9 30 16 42 16 13 0 25 4 28 9 23 37 326
24 326 -13 0 -8 11 -11 30 -8 l30 4 -25 20 c-14 11 -25 25 -25 33 0 20 -53 61
-128 97 -68 33 -122 46 -122 29 0 -5 -35 -10 -77 -10 -42 0 -79 -5 -83 -10 -3
-6 -14 -10 -25 -10 -11 1 -64 -2 -117 -5 -57 -3 -98 -2 -98 3 0 6 -12 6 -30 1
-21 -6 -29 -5 -27 3 1 7 -6 11 -17 9 -16 -3 -18 1 -13 27 5 24 3 29 -8 24 -10
-3 -15 2 -15 16 0 12 5 21 11 21 6 0 3 7 -6 16 -9 9 -14 23 -11 30 3 8 0 14
-7 14 -8 0 -8 3 2 9 11 7 9 10 -8 16 -26 8 -50 47 -32 53 6 2 11 10 11 18 0 8
-6 11 -15 8 -9 -4 -15 0 -15 10 0 10 6 14 18 10 9 -2 2 3 -15 12 -18 10 -33
22 -33 26 0 5 5 6 10 3 15 -9 12 4 -5 21 -8 9 -13 26 -11 39 3 13 0 26 -5 29
-5 2 -4 3 3 2 7 -2 12 -8 11 -14 -5 -22 27 -20 51 3 37 34 34 101 -3 73 -13
-10 -14 -10 -4 2 9 9 9 17 2 26 -8 10 -5 10 15 1 14 -7 26 -15 26 -19 0 -9 50
15 50 25 0 5 -4 6 -9 3 -5 -4 -12 0 -14 6 -3 8 -6 6 -6 -5 -1 -10 -6 -15 -11
-12 -7 4 -6 13 1 26 8 16 13 18 25 8 8 -6 17 -9 21 -5 3 3 1 6 -6 6 -7 0 -10
4 -6 9 9 15 -14 24 -29 12 -18 -15 -30 11 -13 28 8 8 7 11 -4 11 -11 0 -11 2
-1 8 7 5 15 26 17 48 4 31 3 34 -4 14 -8 -21 -16 -13 -12 13 0 4 -3 7 -9 7 -5
0 -10 -4 -10 -10 0 -5 -7 -10 -16 -10 -8 0 -13 -4 -10 -8 2 -4 -4 -8 -15 -8
-27 0 -24 13 9 31 15 9 20 14 12 12 -8 -3 -21 2 -28 9 -11 12 -9 14 8 14 13 0
20 6 19 18 0 10 -3 12 -6 5 -2 -7 -13 -13 -24 -13 -10 0 -19 -5 -19 -12 0 -9
-3 -9 -12 0 -10 10 -10 15 2 22 8 5 18 6 23 3 4 -3 11 4 14 16 6 23 28 28 37
9 3 -7 3 -3 0 10 -4 15 -1 22 7 20 7 -2 15 6 18 18 4 13 13 20 24 18 9 -1 17
2 17 7 0 5 5 9 11 9 5 0 7 -6 3 -12 -5 -7 5 -3 20 10 31 24 41 28 31 13z
m-115 -41 c0 -5 -5 -10 -11 -10 -5 0 -7 5 -4 10 3 6 8 10 11 10 2 0 4 -4 4
-10z m-273 -43 c0 -7 -9 -13 -19 -13 -18 0 -18 1 -2 13 10 7 18 13 19 13 1 0
2 -6 2 -13z m53 -38 c0 -5 -7 -9 -15 -9 -8 0 -15 7 -15 15 0 9 6 12 15 9 8 -4
15 -10 15 -15z m67 -7 c-9 -2 -14 -8 -11 -13 8 -13 -29 -7 -38 6 -10 14 10 23
40 16 19 -3 22 -6 9 -9z m-138 -26 c-3 -3 -11 5 -18 17 -13 21 -12 21 5 5 10
-10 16 -20 13 -22z m150 -19 c-8 -7 -21 -12 -29 -9 -8 3 -12 1 -8 -3 4 -4 1
-13 -5 -20 -10 -11 -17 -10 -39 3 -42 24 -35 40 15 37 24 -2 50 1 57 5 20 12
25 4 9 -13z m120 -84 c-7 -8 -15 -10 -18 -6 -4 4 -10 11 -14 14 -4 4 4 7 18 7
21 0 23 -3 14 -15z m-219 -27 c0 -2 -7 -7 -16 -10 -8 -3 -12 -2 -9 4 6 10 25
14 25 6z m-49 -93 c13 -17 13 -17 -6 -3 -11 8 -22 16 -24 17 -2 2 0 3 6 3 6 0
17 -8 24 -17z m194 -41 c-3 -3 -11 0 -18 7 -9 10 -8 11 6 5 10 -3 15 -9 12
-12z m-8 -58 c-3 -3 -12 -4 -19 -1 -8 3 -5 6 6 6 11 1 17 -2 13 -5z m100 -226
c2 -16 0 -19 -6 -9 -5 7 -14 10 -20 7 -12 -8 -15 6 -4 17 13 14 29 6 30 -15z
m-7 -38 c0 -5 -7 -7 -15 -4 -8 4 -15 8 -15 10 0 2 7 4 15 4 8 0 15 -4 15 -10z
m-386 -52 c-3 -5 -10 -6 -15 -3 -5 4 -9 1 -9 -4 0 -6 5 -11 12 -11 9 0 9 -3 0
-12 -9 -9 -8 -14 3 -22 11 -8 12 -15 4 -26 -9 -13 -10 -12 -5 3 9 27 -12 20
-28 -10 -11 -20 -15 -23 -16 -10 0 9 -8 17 -17 17 -15 0 -16 -2 -3 -10 8 -5
11 -10 5 -10 -15 1 -40 23 -43 40 -2 13 -1 13 10 0 18 -21 51 -19 65 5 17 28
16 40 -3 25 -12 -11 -15 -11 -12 0 5 23 22 38 40 37 9 -1 14 -5 12 -9z m56
-28 c0 -5 -5 -10 -11 -10 -5 0 -7 5 -4 10 3 6 8 10 11 10 2 0 4 -4 4 -10z
m365 0 c3 -5 1 -10 -4 -10 -6 0 -11 5 -11 10 0 6 2 10 4 10 3 0 8 -4 11 -10z
m-525 -100 c0 -5 -5 -10 -11 -10 -5 0 -7 5 -4 10 3 6 8 10 11 10 2 0 4 -4 4
-10z m130 -61 c0 -5 -4 -9 -10 -9 -5 0 -10 7 -10 16 0 8 5 12 10 9 6 -3 10
-10 10 -16z m30 -3 c0 -8 -4 -18 -10 -21 -5 -3 -10 3 -10 14 0 12 5 21 10 21
6 0 10 -6 10 -14z m140 -6 c0 -5 -5 -10 -11 -10 -5 0 -7 5 -4 10 3 6 8 10 11
10 2 0 4 -4 4 -10z m-135 -40 c-3 -5 -11 -10 -16 -10 -6 0 -7 5 -4 10 3 6 11
10 16 10 6 0 7 -4 4 -10z m625 -10 c0 -5 -2 -10 -4 -10 -3 0 -8 5 -11 10 -3 6
-1 10 4 10 6 0 11 -4 11 -10z m70 -30 c0 -5 -5 -10 -11 -10 -5 0 -7 5 -4 10 3
6 8 10 11 10 2 0 4 -4 4 -10z m-320 -23 c0 -8 -3 -8 -9 1 -7 11 -9 11 -14 -2
-4 -9 -11 -16 -17 -16 -5 0 -2 9 7 19 17 20 33 19 33 -2z m412 -132 c5 -6 8
-6 8 1 0 19 53 3 83 -24 15 -14 27 -32 27 -41 0 -8 7 -23 17 -33 29 -32 4 -32
-27 0 -17 18 -37 32 -45 32 -8 0 -15 6 -15 14 0 9 -7 12 -20 9 -12 -3 -20 0
-20 7 0 6 -6 10 -12 7 -20 -7 -48 12 -42 27 6 15 35 16 46 1z m878 -75 c12
-30 5 -90 -11 -90 -5 0 -9 -6 -9 -14 0 -8 -3 -17 -7 -19 -5 -3 -6 15 -4 40 3
41 2 45 -17 39 -29 -10 -36 10 -18 49 19 40 48 38 66 -5z m-2155 16 c16 -12
17 -16 6 -30 -15 -18 -41 -21 -41 -5 0 6 -7 8 -16 5 -11 -4 -14 -1 -12 12 2 9
10 16 16 15 7 -2 12 2 12 7 0 14 13 12 35 -4z m1200 -36 c3 -6 3 -20 0 -31 -6
-17 -9 -19 -16 -8 -12 19 -11 49 0 49 6 0 13 -5 16 -10z m73 -8 c10 -10 23
-17 29 -15 6 2 14 -4 17 -13 5 -13 -3 -26 -26 -46 -32 -28 -95 -55 -104 -45
-3 2 6 22 21 42 22 33 30 61 26 88 -2 13 19 7 37 -11z m768 -109 c17 -23 18
-53 1 -53 -8 0 -24 9 -37 20 -19 16 -21 22 -10 35 16 20 30 19 46 -2z m-96
-103 c4 -24 1 -40 -7 -40 -5 0 -9 17 -11 37 -2 35 14 38 18 3z m-40 -65 c0 -8
-4 -15 -10 -15 -5 0 -10 7 -10 15 0 8 5 15 10 15 6 0 10 -7 10 -15z m-1464
-607 c-6 -41 -36 -66 -49 -42 -6 10 -4 21 7 33 9 10 16 23 16 29 0 7 7 12 16
12 12 0 14 -8 10 -32z m19 -457 c-3 -5 2 -11 11 -13 14 -3 14 -6 -5 -28 -17
-21 -21 -22 -22 -7 -1 9 -2 23 -3 30 -1 6 3 15 9 19 14 10 17 10 10 -1z m-77
-386 c-3 -3 -9 2 -12 12 -6 14 -5 15 5 6 7 -7 10 -15 7 -18z m40 -36 c0 -18 7
-36 14 -40 11 -7 10 -9 -1 -9 -11 0 -11 -3 -1 -15 7 -8 9 -15 4 -15 -4 0 -2
-6 4 -12 10 -10 15 -10 22 2 5 8 10 10 10 4 0 -6 -7 -17 -15 -24 -9 -7 -14
-19 -11 -26 6 -16 -19 -38 -36 -31 -7 3 -4 6 7 6 18 1 17 4 -9 24 -23 18 -27
28 -21 43 4 10 7 24 6 29 -5 17 -9 40 -10 50 -1 6 -6 3 -11 -5 -5 -8 -10 -13
-11 -10 -7 37 -4 50 12 50 10 0 21 5 24 10 11 17 22 2 23 -31z m278 -422 c5
-1 9 -8 11 -15 1 -10 -4 -8 -18 4 -10 9 -19 22 -19 28 0 6 4 5 9 -2 4 -8 12
-14 17 -15z m235 -20 c-10 -9 -11 -8 -5 6 3 10 9 15 12 12 3 -3 0 -11 -7 -18z
m-104 -29 c-3 -8 -6 -5 -6 6 -1 11 2 17 5 13 3 -3 4 -12 1 -19z m-1437 -908
c0 -5 -5 -10 -11 -10 -5 0 -7 5 -4 10 3 6 8 10 11 10 2 0 4 -4 4 -10z m2621
-517 c-12 -20 -14 -14 -5 12 4 9 9 14 11 11 3 -2 0 -13 -6 -23z m-37 -98 c-4
-8 -10 -15 -15 -15 -5 0 -9 -7 -9 -16 0 -9 5 -12 12 -8 7 4 8 3 4 -4 -4 -7 -1
-12 6 -12 18 0 34 12 40 30 3 10 10 4 23 -19 76 -148 84 -419 15 -566 -35 -74
-68 -97 -98 -69 -31 30 -49 74 -60 149 -11 80 -11 75 -12 219 0 103 17 216 40
258 6 10 10 23 10 29 0 12 29 38 42 39 4 0 5 -7 2 -15z m-2507 -467 c-3 -7 -5
-2 -5 12 0 14 2 19 5 13 2 -7 2 -19 0 -25z m10 -50 c-3 -7 -5 -2 -5 12 0 14 2
19 5 13 2 -7 2 -19 0 -25z m4 -65 c-9 -16 -10 -14 -11 12 0 21 3 26 11 18 8
-8 8 -16 0 -30z m9 -47 c0 -8 -4 -18 -10 -21 -5 -3 -10 3 -10 14 0 12 5 21 10
21 6 0 10 -6 10 -14z m-9 -83 c-9 -16 -10 -14 -11 12 0 21 3 26 11 18 8 -8 8
-16 0 -30z m-5 -71 c-11 -10 -15 4 -8 28 l7 25 3 -23 c2 -13 1 -26 -2 -30z
m2324 9 c0 -5 -7 -11 -14 -14 -10 -4 -13 -1 -9 9 6 15 23 19 23 5z m-40 -15
c0 -3 -4 -8 -10 -11 -5 -3 -10 -1 -10 4 0 6 5 11 10 11 6 0 10 -2 10 -4z
m-2297 -57 c-6 -6 -7 3 -4 23 4 28 6 29 9 9 2 -13 0 -27 -5 -32z m2270 16 c-3
-9 -8 -14 -10 -11 -3 3 -2 9 2 15 9 16 15 13 8 -4z m74 -27 c-3 -7 -5 -2 -5
12 0 14 2 19 5 13 2 -7 2 -19 0 -25z m-7 -47 c0 -5 -7 -12 -16 -15 -14 -5 -15
-4 -4 9 14 17 20 19 20 6z m35 -1 c3 -5 1 -10 -4 -10 -6 0 -11 5 -11 10 0 6 2
10 4 10 3 0 8 -4 11 -10z m22 -12 c-3 -8 -6 -5 -6 6 -1 11 2 17 5 13 3 -3 4
-12 1 -19z"/>
<path d="M3706 5894 c-4 -9 -4 -19 -1 -22 2 -3 7 3 11 12 4 9 4 19 1 22 -2 3
-7 -3 -11 -12z"/>
<path d="M3755 5801 c-3 -5 -7 -23 -9 -39 -2 -24 0 -29 15 -25 11 3 15 11 11
21 -5 15 -4 16 14 2 18 -14 18 -14 5 2 -7 10 -17 15 -22 12 -13 -8 -11 10 3
24 9 9 9 12 1 12 -7 0 -14 -4 -18 -9z"/>
<path d="M3800 5790 c-9 -6 -10 -10 -3 -10 6 0 15 5 18 10 8 12 4 12 -15 0z"/>
<path d="M3653 5512 c10 -10 17 -24 17 -31 0 -7 4 -10 10 -6 5 3 6 13 3 22 -5
12 -2 15 10 10 9 -3 17 -2 17 2 0 5 -7 11 -15 15 -8 3 -15 0 -15 -6 0 -9 -3
-9 -12 0 -19 19 -33 14 -15 -6z"/>
<path d="M3710 5369 c0 -5 5 -7 10 -4 6 3 10 8 10 11 0 2 -4 4 -10 4 -5 0 -10
-5 -10 -11z"/>
<path d="M4360 4649 c0 -5 5 -7 10 -4 6 3 10 8 10 11 0 2 -4 4 -10 4 -5 0 -10
-5 -10 -11z"/>
<path d="M4086 4275 c8 -37 14 -45 14 -19 0 10 -5 26 -10 34 -8 11 -9 7 -4
-15z"/>
<path d="M4754 4283 c-3 -10 -10 -26 -15 -35 -5 -10 -9 -23 -9 -30 0 -20 27
25 32 55 6 30 0 37 -8 10z"/>
<path d="M3900 4249 c0 -6 -6 -9 -14 -6 -10 4 -12 0 -9 -14 3 -10 -1 -27 -8
-37 -11 -14 -11 -15 0 -5 7 6 21 9 30 6 12 -4 13 -3 2 5 -9 7 -10 12 -2 16 6
4 18 0 27 -8 20 -20 25 -20 17 1 -9 22 -43 56 -43 42z"/>
<path d="M3812 4220 c0 -14 2 -19 5 -12 2 6 2 18 0 25 -3 6 -5 1 -5 -13z"/>
<path d="M3782 4171 c3 -20 0 -27 -8 -24 -6 2 -10 14 -7 26 4 20 3 21 -10 5
-17 -22 -31 -23 -23 -3 3 8 1 15 -3 15 -13 0 -18 -19 -20 -77 -1 -38 2 -53 11
-53 7 -1 3 -9 -10 -20 -25 -20 -22 -43 3 -33 11 4 17 -4 21 -26 4 -17 11 -34
17 -38 6 -4 7 -1 2 7 -5 8 -4 11 2 7 6 -4 9 -19 7 -34 -3 -32 11 -63 30 -63 7
0 18 -11 24 -25 6 -14 18 -25 26 -25 8 0 17 -8 19 -17 3 -13 5 -11 6 6 1 19 4
21 15 12 12 -10 14 -7 12 21 -2 18 2 36 8 40 7 5 4 8 -7 8 -14 0 -16 4 -9 17
6 9 6 29 1 46 -7 26 -6 27 8 15 15 -11 16 -10 11 10 -4 12 -3 22 2 22 14 0 19
40 6 48 -19 11 -39 54 -30 61 5 3 10 14 10 24 1 12 -5 17 -22 17 -14 0 -24 6
-24 14 0 18 -42 29 -53 13 -6 -8 -7 -4 -4 11 3 12 1 22 -5 22 -6 0 -8 -13 -6
-29z m55 -33 c-3 -8 -6 -5 -6 6 -1 11 2 17 5 13 3 -3 4 -12 1 -19z m28 -29
c11 -16 1 -19 -13 -3 -7 8 -8 14 -3 14 5 0 13 -5 16 -11z m-72 -239 c-7 -8
-22 24 -16 34 4 5 10 1 13 -10 4 -10 6 -21 3 -24z"/>
<path d="M3928 4158 c-10 -12 -17 -29 -17 -38 1 -12 2 -12 6 1 3 11 11 15 24
12 15 -4 19 0 19 21 0 32 -9 33 -32 4z"/>
<path d="M4771 4126 c-8 -9 -11 -19 -7 -23 9 -9 29 13 24 27 -2 8 -8 7 -17 -4z"/>
<path d="M3900 4075 c0 -8 2 -15 4 -15 2 0 6 7 10 15 3 8 1 15 -4 15 -6 0 -10
-7 -10 -15z"/>
<path d="M3478 4023 c-34 -9 -29 -33 12 -49 22 -9 38 -20 35 -24 -10 -17 35
-17 50 0 12 13 13 23 6 42 -13 35 -49 46 -103 31z"/>
<path d="M3666 3993 c-6 -14 -5 -15 5 -6 7 7 10 15 7 18 -3 3 -9 -2 -12 -12z"/>
<path d="M4075 3040 c-3 -5 -1 -10 4 -10 6 0 11 5 11 10 0 6 -2 10 -4 10 -3 0
-8 -4 -11 -10z"/>
<path d="M3880 2569 c0 -5 5 -7 10 -4 6 3 10 8 10 11 0 2 -4 4 -10 4 -5 0 -10
-5 -10 -11z"/>
<path d="M4035 2520 c-3 -5 1 -10 10 -10 9 0 13 5 10 10 -3 6 -8 10 -10 10 -2
0 -7 -4 -10 -10z"/>
<path d="M3650 2492 c6 -13 14 -21 18 -18 3 4 -2 14 -12 24 -18 16 -18 16 -6
-6z"/>
<path d="M3510 5830 c0 -5 5 -10 10 -10 6 0 10 5 10 10 0 6 -4 10 -10 10 -5 0
-10 -4 -10 -10z"/>
<path d="M3298 2813 c7 -3 16 -2 19 1 4 3 -2 6 -13 5 -11 0 -14 -3 -6 -6z"/>
<path d="M4830 870 c0 -5 7 -10 16 -10 8 0 12 5 9 10 -3 6 -10 10 -16 10 -5 0
-9 -4 -9 -10z"/>
<path d="M4878 843 c7 -3 16 -2 19 1 4 3 -2 6 -13 5 -11 0 -14 -3 -6 -6z"/>
<path d="M4812 795 c0 -16 2 -22 5 -12 2 9 2 23 0 30 -3 6 -5 -1 -5 -18z"/>
<path d="M4854 780 c0 -10 6 -16 13 -13 7 3 13 9 13 13 0 4 -6 10 -13 13 -7 3
-13 -3 -13 -13z"/>
<path d="M4800 731 c0 -5 7 -12 16 -15 14 -5 15 -4 4 9 -14 17 -20 19 -20 6z"/>
<path d="M4841 613 c0 -16 3 -22 6 -13 3 8 10 21 16 28 7 8 5 12 -7 12 -11 0
-16 -8 -15 -27z"/>
<path d="M4800 570 c0 -5 5 -10 10 -10 6 0 10 5 10 10 0 6 -4 10 -10 10 -5 0
-10 -4 -10 -10z"/>
<path d="M4835 570 c3 -5 8 -10 11 -10 2 0 4 5 4 10 0 6 -5 10 -11 10 -5 0 -7
-4 -4 -10z"/>
<path d="M4925 560 c-3 -6 1 -7 9 -4 18 7 21 14 7 14 -6 0 -13 -4 -16 -10z"/>
<path d="M4805 510 c-3 -5 -2 -10 4 -10 5 0 13 5 16 10 3 6 2 10 -4 10 -5 0
-13 -4 -16 -10z"/>
<path d="M4812 408 c2 -24 8 -42 13 -40 6 2 9 11 7 20 -2 9 -3 27 -3 40 1 12
-4 22 -10 22 -6 0 -9 -18 -7 -42z"/>
<path d="M4820 341 c0 -6 4 -12 8 -15 5 -3 9 1 9 9 0 8 -4 15 -9 15 -4 0 -8
-4 -8 -9z"/>
<path d="M4921 336 c-7 -9 -10 -16 -7 -16 4 0 2 -9 -4 -20 -6 -11 -16 -18 -22
-14 -7 4 -6 9 3 15 10 6 4 8 -16 8 -16 0 -25 -3 -19 -5 7 -3 10 -14 7 -24 -9
-33 23 -24 52 15 27 35 32 73 6 41z"/>
</g>
</svg>
